<svg width="48" height="48" viewBox="0 0 48 48" fill="none" xmlns="http://www.w3.org/2000/svg">
<path d="M36.7 22.9V18C36.7 15.8 34.9 14 32.7 14H26C25.26 14 24.56 14.24 24 14.64C23.44 14.24 22.74 14 22 14H15.3C13.1 14 11.3 15.8 11.3 18V22.9C10.5 23.82 10 25.02 10 26.34V34H13V31H35V34H38V26.34C38 25.02 37.5 23.82 36.7 22.9ZM33.5 21H25.5V17H33.5V21ZM14.5 17H22.5V21H14.5V17ZM35 28H13V26C13 24.9 13.9 24 15 24H33C34.1 24 35 24.9 35 26V28ZM40 8V40H8V8H40ZM40 4H8C5.8 4 4 5.8 4 8V40C4 42.2 5.8 44 8 44H40C42.2 44 44 42.2 44 40V8C44 5.8 42.2 4 40 4Z" fill="#212626"/>
</svg>
