<svg width="85" height="85" viewBox="0 0 85 85" fill="none" xmlns="http://www.w3.org/2000/svg">
<path d="M31.875 74.375C31.875 76.3229 33.4687 77.9166 35.4167 77.9166H49.5833C51.5312 77.9166 53.125 76.3229 53.125 74.375V70.8333H31.875V74.375ZM42.5 7.08331C28.8292 7.08331 17.7083 18.2041 17.7083 31.875C17.7083 40.3041 21.9229 47.7062 28.3333 52.2041V60.2083C28.3333 62.1562 29.9271 63.75 31.875 63.75H53.125C55.0729 63.75 56.6667 62.1562 56.6667 60.2083V52.2041C63.0771 47.7062 67.2917 40.3041 67.2917 31.875C67.2917 18.2041 56.1708 7.08331 42.5 7.08331ZM52.5938 46.3958L49.5833 48.5208V56.6666H35.4167V48.5208L32.4062 46.3958C27.625 43.0667 24.7917 37.6479 24.7917 31.875C24.7917 22.1 32.725 14.1666 42.5 14.1666C52.275 14.1666 60.2083 22.1 60.2083 31.875C60.2083 37.6479 57.375 43.0667 52.5938 46.3958Z" fill="#212626"/>
</svg>
