<svg width="168" height="100" viewBox="0 0 168 100" fill="none" xmlns="http://www.w3.org/2000/svg">
<path d="M84.0052 24.8853H68.4493V47.9888H74.055V31.1517H84.0052V24.8853Z" fill="#BEA078"/>
<path d="M74.015 21.7421H68.4493V10.6308L74.015 13.774V21.7421Z" fill="#BEA078"/>
<path d="M68.4493 0V6.58669L84.0052 16.3566V9.58975L68.4493 0Z" fill="#BEA078"/>
<path d="M83.985 24.8853H99.5408V47.9888H93.9351V31.1517H83.985V24.8853Z" fill="#BEA078"/>
<path d="M93.9751 21.7421H99.5408V10.6308L93.9751 13.774V21.7421Z" fill="#BEA078"/>
<path d="M99.5408 0V6.58669L83.985 16.3566V9.58975L99.5408 0Z" fill="#BEA078"/>
<path d="M2.40391 78.569V59.1859H2.42922L12.7787 73.8624L11.2098 73.5081L21.534 59.1859H21.5846V78.569H17.9155V67.4604L18.1432 69.3582L11.8424 78.3159H11.7918L5.31391 69.3582L5.94652 67.6122V78.569H2.40391ZM24.2983 78.569L32.6993 59.2112H32.9018L41.3028 78.569H37.0517L31.6871 64.9552L34.3441 63.1333L27.9168 78.569H24.2983ZM30.0424 71.838H35.6346L36.9251 74.9251H28.9037L30.0424 71.838ZM42.4994 59.945H47.1807L59.3268 78.569H54.5949L42.4994 59.945ZM42.2464 78.569L48.8761 68.1436L50.5968 71.838L46.8011 78.569H42.2464ZM50.8498 66.7772L54.6961 59.945H59.1497L52.7477 69.9402L50.8498 66.7772ZM62.3534 59.945H66.0225V78.569H62.3534V59.945ZM70.8294 59.945H74.4985V78.569H70.8294V59.945ZM103.198 59.945V78.569H99.5284V71.003H91.2033V78.569H87.5342V59.945H91.2033V67.4604H99.5284V59.945H103.198ZM106.856 69.2823C106.856 68.0002 107.101 66.7856 107.59 65.6385C108.079 64.4913 108.754 63.4792 109.615 62.6019C110.492 61.7079 111.504 61.0078 112.651 60.5017C113.798 59.9956 115.03 59.7426 116.346 59.7426C117.644 59.7426 118.868 59.9956 120.015 60.5017C121.162 61.0078 122.174 61.7079 123.051 62.6019C123.945 63.4792 124.637 64.4913 125.126 65.6385C125.632 66.7856 125.885 68.0002 125.885 69.2823C125.885 70.5981 125.632 71.8296 125.126 72.9767C124.637 74.1238 123.945 75.136 123.051 76.0132C122.174 76.8736 121.162 77.5484 120.015 78.0376C118.868 78.5268 117.644 78.7714 116.346 78.7714C115.03 78.7714 113.798 78.5268 112.651 78.0376C111.504 77.5484 110.492 76.8736 109.615 76.0132C108.754 75.136 108.079 74.1238 107.59 72.9767C107.101 71.8296 106.856 70.5981 106.856 69.2823ZM110.652 69.2823C110.652 70.1089 110.795 70.8849 111.082 71.6103C111.386 72.3188 111.799 72.9514 112.322 73.5081C112.862 74.0479 113.478 74.4697 114.169 74.7733C114.878 75.077 115.645 75.2288 116.472 75.2288C117.265 75.2288 117.999 75.077 118.674 74.7733C119.365 74.4697 119.964 74.0479 120.47 73.5081C120.976 72.9514 121.373 72.3188 121.659 71.6103C121.946 70.8849 122.09 70.1089 122.09 69.2823C122.09 68.4388 121.938 67.6544 121.634 66.929C121.347 66.2036 120.942 65.571 120.42 65.0312C119.913 64.4745 119.315 64.0443 118.623 63.7406C117.931 63.437 117.181 63.2852 116.371 63.2852C115.561 63.2852 114.81 63.437 114.119 63.7406C113.427 64.0443 112.82 64.4745 112.297 65.0312C111.774 65.571 111.369 66.2036 111.082 66.929C110.795 67.6544 110.652 68.4388 110.652 69.2823ZM129.543 78.569V59.1859H129.569L139.918 73.8624L138.349 73.5081L148.673 59.1859H148.724V78.569H145.055V67.4604L145.283 69.3582L138.982 78.3159H138.931L132.453 69.3582L133.086 67.6122V78.569H129.543ZM153.538 59.945H166.241V63.4876H157.207V67.4604H165.203V71.003H157.207V75.0264H166.595V78.569H153.538V59.945Z" fill="white"/>
<path d="M44.4623 95.9433C43.8477 95.9433 43.2649 95.8635 42.7142 95.7039C42.1713 95.5362 41.7283 95.3127 41.3851 95.0333C41.2015 94.8976 41.1097 94.7061 41.1097 94.4586C41.1097 94.291 41.1576 94.1473 41.2534 94.0275C41.3571 93.8998 41.4769 93.836 41.6126 93.836C41.7563 93.836 41.9199 93.8918 42.1035 94.0036C42.4467 94.2511 42.806 94.4307 43.1811 94.5424C43.5563 94.6542 43.9714 94.71 44.4264 94.71C45.0091 94.71 45.4561 94.6103 45.7674 94.4107C46.0788 94.2032 46.2344 93.9038 46.2344 93.5127C46.2344 93.2093 46.0867 92.9779 45.7914 92.8182C45.504 92.6506 45.0211 92.4909 44.3426 92.3393C43.6401 92.1876 43.0694 92.012 42.6303 91.8124C42.1913 91.6129 41.86 91.3574 41.6365 91.0461C41.413 90.7348 41.3013 90.3397 41.3013 89.8607C41.3013 89.3658 41.441 88.9228 41.7203 88.5316C41.9997 88.1405 42.3869 87.8372 42.8818 87.6216C43.3847 87.3981 43.9474 87.2864 44.5701 87.2864C45.7116 87.2864 46.6415 87.5897 47.3599 88.1964C47.4637 88.2842 47.5355 88.372 47.5755 88.4598C47.6234 88.5396 47.6473 88.6434 47.6473 88.7711C47.6473 88.9387 47.5954 89.0864 47.4916 89.2141C47.3959 89.3339 47.2801 89.3937 47.1444 89.3937C47.0646 89.3937 46.9887 89.3818 46.9169 89.3578C46.853 89.3339 46.7652 89.29 46.6535 89.2261C46.3262 88.9866 46.0069 88.811 45.6956 88.6993C45.3923 88.5795 45.0171 88.5197 44.5701 88.5197C44.0273 88.5197 43.5962 88.6314 43.2769 88.8549C42.9656 89.0705 42.8099 89.3738 42.8099 89.7649C42.8099 90.0922 42.9496 90.3437 43.229 90.5193C43.5084 90.6949 43.9834 90.8585 44.6539 91.0102C45.3643 91.1698 45.9391 91.3494 46.3781 91.549C46.8251 91.7406 47.1644 91.988 47.3959 92.2914C47.6353 92.5947 47.7551 92.9739 47.7551 93.4289C47.7551 93.9238 47.6154 94.3628 47.336 94.746C47.0646 95.1211 46.6774 95.4165 46.1745 95.632C45.6796 95.8396 45.1089 95.9433 44.4623 95.9433ZM54.8285 95.1289C54.8653 95.2084 54.8836 95.288 54.8836 95.3675C54.8836 95.5082 54.8255 95.6275 54.7092 95.7254C54.5991 95.8233 54.4706 95.8723 54.3238 95.8723C54.2259 95.8723 54.1341 95.8478 54.0484 95.7989C53.9628 95.7438 53.8955 95.6612 53.8465 95.5511L53.2958 94.3212H50.0652L49.5145 95.5511C49.4655 95.6612 49.3982 95.7438 49.3126 95.7989C49.2269 95.8478 49.1321 95.8723 49.0281 95.8723C48.8873 95.8723 48.7588 95.8233 48.6426 95.7254C48.5263 95.6275 48.4682 95.5082 48.4682 95.3675C48.4682 95.288 48.4866 95.2084 48.5233 95.1289L51.0564 89.6863C51.1115 89.5639 51.1941 89.4722 51.3042 89.411C51.4205 89.3437 51.5428 89.31 51.6713 89.31C51.7998 89.31 51.9191 89.3437 52.0293 89.411C52.1455 89.4722 52.2312 89.5639 52.2862 89.6863L54.8285 95.1289ZM50.469 93.4034H52.892L51.6805 90.6775L50.469 93.4034ZM56.3355 95.8356C56.158 95.8356 56.0203 95.7866 55.9224 95.6887C55.8246 95.5908 55.7756 95.4562 55.7756 95.2849V89.9066C55.7756 89.7291 55.8276 89.5884 55.9316 89.4844C56.0418 89.3743 56.1856 89.3192 56.363 89.3192C56.5466 89.3192 56.6903 89.3743 56.7944 89.4844C56.9045 89.5884 56.9596 89.7291 56.9596 89.9066V94.8627H59.5386C59.9057 94.8627 60.0893 95.0248 60.0893 95.3491C60.0893 95.6734 59.9057 95.8356 59.5386 95.8356H56.3355ZM63.3989 95.9182C62.7686 95.9182 62.221 95.7836 61.756 95.5143C61.2971 95.2451 60.9422 94.8596 60.6913 94.3579C60.4405 93.8562 60.3151 93.2688 60.3151 92.5957C60.3151 91.9227 60.4374 91.3384 60.6822 90.8427C60.933 90.341 61.291 89.9555 61.756 89.6863C62.221 89.4171 62.7686 89.2825 63.3989 89.2825C64.0291 89.2825 64.5736 89.4171 65.0325 89.6863C65.4976 89.9555 65.8524 90.341 66.0972 90.8427C66.3481 91.3384 66.4735 91.9227 66.4735 92.5957C66.4735 93.2688 66.3481 93.8562 66.0972 94.3579C65.8463 94.8596 65.4884 95.2451 65.0234 95.5143C64.5645 95.7836 64.023 95.9182 63.3989 95.9182ZM63.3989 94.9728C63.9924 94.9728 64.4543 94.7679 64.7847 94.3579C65.1213 93.948 65.2895 93.3606 65.2895 92.5957C65.2895 91.8309 65.1213 91.2466 64.7847 90.8427C64.4543 90.4328 63.9924 90.2278 63.3989 90.2278C62.7992 90.2278 62.3311 90.4328 61.9946 90.8427C61.6642 91.2466 61.499 91.8309 61.499 92.5957C61.499 93.3606 61.6642 93.948 61.9946 94.3579C62.3311 94.7679 62.7992 94.9728 63.3989 94.9728ZM72.5704 89.3192C72.7417 89.3192 72.8763 89.3743 72.9742 89.4844C73.0782 89.5884 73.1303 89.7291 73.1303 89.9066V95.2941C73.1303 95.4715 73.0782 95.6153 72.9742 95.7254C72.8702 95.8356 72.7356 95.8906 72.5704 95.8906C72.3746 95.8906 72.2247 95.8203 72.1207 95.6795L68.7707 91.32V95.2941C68.7707 95.4715 68.7218 95.6153 68.6239 95.7254C68.526 95.8356 68.3913 95.8906 68.22 95.8906C68.0487 95.8906 67.9141 95.8356 67.8162 95.7254C67.7183 95.6153 67.6693 95.4715 67.6693 95.2941V89.9066C67.6693 89.7291 67.7214 89.5884 67.8254 89.4844C67.9294 89.3743 68.0671 89.3192 68.2384 89.3192C68.4281 89.3192 68.5749 89.3896 68.6789 89.5303L72.0197 93.8715V89.9066C72.0197 89.7291 72.0687 89.5884 72.1666 89.4844C72.2706 89.3743 72.4052 89.3192 72.5704 89.3192ZM84.7256 87.3343C84.9491 87.3343 85.1287 87.4061 85.2644 87.5498C85.4001 87.6855 85.468 87.8691 85.468 88.1006V95.189C85.468 95.4125 85.4041 95.5881 85.2764 95.7158C85.1487 95.8436 84.9811 95.9074 84.7735 95.9074C84.566 95.9074 84.4023 95.8436 84.2826 95.7158C84.1629 95.5881 84.103 95.4125 84.103 95.189V90.2558L82.0675 94.1114C81.9717 94.287 81.8679 94.4187 81.7561 94.5065C81.6444 94.5863 81.5127 94.6262 81.361 94.6262C81.2093 94.6262 81.0776 94.5863 80.9659 94.5065C80.8541 94.4267 80.7504 94.295 80.6546 94.1114L78.6071 90.3157V95.189C78.6071 95.4045 78.5432 95.5801 78.4155 95.7158C78.2958 95.8436 78.1321 95.9074 77.9246 95.9074C77.717 95.9074 77.5534 95.8436 77.4337 95.7158C77.3139 95.5881 77.2541 95.4125 77.2541 95.189V88.1006C77.2541 87.8691 77.3179 87.6855 77.4456 87.5498C77.5813 87.4061 77.7609 87.3343 77.9844 87.3343C78.2958 87.3343 78.5392 87.5059 78.7148 87.8491L81.373 92.914L84.0192 87.8491C84.1948 87.5059 84.4303 87.3343 84.7256 87.3343ZM87.6544 95.8356C87.4769 95.8356 87.3362 95.7866 87.2322 95.6887C87.1343 95.5908 87.0853 95.4532 87.0853 95.2757V89.9249C87.0853 89.7475 87.1343 89.6098 87.2322 89.5119C87.3362 89.414 87.4769 89.3651 87.6544 89.3651H90.9676C91.1451 89.3651 91.2827 89.4049 91.3806 89.4844C91.4785 89.5639 91.5275 89.6771 91.5275 89.824C91.5275 89.977 91.4785 90.0963 91.3806 90.1819C91.2827 90.2615 91.1451 90.3012 90.9676 90.3012H88.2418V92.0818H90.7841C90.9615 92.0818 91.0992 92.1215 91.1971 92.2011C91.295 92.2806 91.3439 92.3969 91.3439 92.5499C91.3439 92.6967 91.295 92.8099 91.1971 92.8894C91.0992 92.969 90.9615 93.0087 90.7841 93.0087H88.2418V94.8994H90.9676C91.1451 94.8994 91.2827 94.9422 91.3806 95.0279C91.4785 95.1075 91.5275 95.2237 91.5275 95.3767C91.5275 95.5235 91.4785 95.6367 91.3806 95.7163C91.2827 95.7958 91.1451 95.8356 90.9676 95.8356H87.6544ZM96.4732 92.4948C96.8464 92.5988 97.134 92.7885 97.3359 93.0638C97.544 93.3392 97.648 93.6757 97.648 94.0734C97.648 94.6241 97.4491 95.0554 97.0514 95.3675C96.6598 95.6795 96.1183 95.8356 95.4269 95.8356H93.059C92.8815 95.8356 92.7408 95.7866 92.6368 95.6887C92.5389 95.5908 92.4899 95.4532 92.4899 95.2757V89.9249C92.4899 89.7475 92.5389 89.6098 92.6368 89.5119C92.7408 89.414 92.8815 89.3651 93.059 89.3651H95.3351C96.0082 89.3651 96.5344 89.515 96.9137 89.8148C97.2992 90.1085 97.4919 90.5215 97.4919 91.0538C97.4919 91.3965 97.4002 91.6932 97.2166 91.9441C97.0392 92.195 96.7914 92.3785 96.4732 92.4948ZM93.6464 92.091H95.1424C95.9562 92.091 96.3631 91.7881 96.3631 91.1823C96.3631 90.8764 96.2621 90.65 96.0602 90.5032C95.8583 90.3563 95.5523 90.2829 95.1424 90.2829H93.6464V92.091ZM95.2984 94.9178C95.7267 94.9178 96.0388 94.8413 96.2346 94.6883C96.4304 94.5354 96.5283 94.2967 96.5283 93.9724C96.5283 93.6481 96.4273 93.4065 96.2254 93.2474C96.0296 93.0883 95.7206 93.0087 95.2984 93.0087H93.6464V94.9178H95.2984ZM99.3149 95.8356C99.1374 95.8356 98.9997 95.7866 98.9018 95.6887C98.8039 95.5908 98.755 95.4562 98.755 95.2849V89.9066C98.755 89.7291 98.807 89.5884 98.911 89.4844C99.0212 89.3743 99.1649 89.3192 99.3424 89.3192C99.526 89.3192 99.6697 89.3743 99.7738 89.4844C99.8839 89.5884 99.939 89.7291 99.939 89.9066V94.8627H102.518C102.885 94.8627 103.069 95.0248 103.069 95.3491C103.069 95.6734 102.885 95.8356 102.518 95.8356H99.3149ZM106.378 95.9182C105.748 95.9182 105.2 95.7836 104.735 95.5143C104.276 95.2451 103.922 94.8596 103.671 94.3579C103.42 93.8562 103.294 93.2688 103.294 92.5957C103.294 91.9227 103.417 91.3384 103.662 90.8427C103.912 90.341 104.27 89.9555 104.735 89.6863C105.2 89.4171 105.748 89.2825 106.378 89.2825C107.008 89.2825 107.553 89.4171 108.012 89.6863C108.477 89.9555 108.832 90.341 109.077 90.8427C109.327 91.3384 109.453 91.9227 109.453 92.5957C109.453 93.2688 109.327 93.8562 109.077 94.3579C108.826 94.8596 108.468 95.2451 108.003 95.5143C107.544 95.7836 107.002 95.9182 106.378 95.9182ZM106.378 94.9728C106.972 94.9728 107.434 94.7679 107.764 94.3579C108.101 93.948 108.269 93.3606 108.269 92.5957C108.269 91.8309 108.101 91.2466 107.764 90.8427C107.434 90.4328 106.972 90.2278 106.378 90.2278C105.779 90.2278 105.311 90.4328 104.974 90.8427C104.644 91.2466 104.478 91.8309 104.478 92.5957C104.478 93.3606 104.644 93.948 104.974 94.3579C105.311 94.7679 105.779 94.9728 106.378 94.9728ZM118.601 89.6771C118.644 89.5548 118.711 89.463 118.803 89.4018C118.901 89.3406 119.008 89.31 119.124 89.31C119.271 89.31 119.396 89.3559 119.5 89.4477C119.61 89.5395 119.665 89.6618 119.665 89.8148C119.665 89.8699 119.65 89.9494 119.62 90.0534L117.646 95.5143C117.597 95.6367 117.515 95.7316 117.398 95.7989C117.288 95.8662 117.166 95.8998 117.031 95.8998C116.897 95.8998 116.771 95.8662 116.655 95.7989C116.539 95.7316 116.459 95.6367 116.416 95.5143L114.893 91.1915L113.342 95.5143C113.293 95.6367 113.21 95.7316 113.094 95.7989C112.984 95.8662 112.861 95.8998 112.727 95.8998C112.592 95.8998 112.467 95.8662 112.351 95.7989C112.24 95.7316 112.164 95.6367 112.121 95.5143L110.148 90.0534C110.117 89.9617 110.102 89.8821 110.102 89.8148C110.102 89.6618 110.157 89.5395 110.267 89.4477C110.383 89.3559 110.518 89.31 110.671 89.31C110.793 89.31 110.903 89.3406 111.001 89.4018C111.099 89.463 111.17 89.5548 111.212 89.6771L112.773 94.1652L114.379 89.7047C114.422 89.5823 114.492 89.4875 114.59 89.4202C114.688 89.3467 114.795 89.31 114.911 89.31C115.027 89.31 115.135 89.3467 115.232 89.4202C115.336 89.4875 115.41 89.5854 115.453 89.7139L117.013 94.2202L118.601 89.6771ZM124.869 89.5211C124.979 89.3865 125.111 89.3192 125.264 89.3192C125.404 89.3192 125.53 89.3743 125.64 89.4844C125.75 89.5884 125.805 89.7139 125.805 89.8607C125.805 89.9831 125.759 90.0993 125.667 90.2095L123.584 92.7518V95.2941C123.584 95.4837 123.529 95.6306 123.419 95.7346C123.309 95.8386 123.168 95.8906 122.997 95.8906C122.819 95.8906 122.675 95.8386 122.565 95.7346C122.455 95.6306 122.4 95.4837 122.4 95.2941V92.7518L120.317 90.2095C120.225 90.0993 120.179 89.9831 120.179 89.8607C120.179 89.7139 120.234 89.5884 120.344 89.4844C120.454 89.3743 120.58 89.3192 120.72 89.3192C120.873 89.3192 121.005 89.3865 121.115 89.5211L122.997 91.8523L124.869 89.5211Z" fill="white"/>
<line x1="29.934" y1="92.4965" x2="37.2778" y2="92.4965" stroke="white" stroke-width="0.718419"/>
<line x1="129.794" y1="92.4965" x2="137.138" y2="92.4965" stroke="white" stroke-width="0.718419"/>
</svg>
