<svg width="168" height="100" viewBox="0 0 168 100" fill="none" xmlns="http://www.w3.org/2000/svg">
<path d="M84.005 24.8853H68.4492V47.9888H74.0549V31.1517H84.005V24.8853Z" fill="#BEA078"/>
<path d="M74.0149 21.7421H68.4492V10.6308L74.0149 13.774V21.7421Z" fill="#BEA078"/>
<path d="M68.4492 0V6.58669L84.005 16.3566V9.58975L68.4492 0Z" fill="#BEA078"/>
<path d="M83.985 24.8853H99.5408V47.9888H93.9351V31.1517H83.985V24.8853Z" fill="#BEA078"/>
<path d="M93.9751 21.7421H99.5408V10.6308L93.9751 13.774V21.7421Z" fill="#BEA078"/>
<path d="M99.5408 0V6.58669L83.985 16.3566V9.58975L99.5408 0Z" fill="#BEA078"/>
<path d="M2.28372 77.5689V59.155H2.30775L12.1397 73.0977L10.6493 72.7611L20.4573 59.155H20.5054V77.5689H17.0197V67.0158L17.236 68.8187L11.2503 77.3285H11.2022L5.04821 68.8187L5.64919 67.16V77.5689H2.28372ZM23.0834 77.5689L31.0644 59.179H31.2567L39.2376 77.5689H35.1991L30.1028 64.6359L32.6269 62.9051L26.521 77.5689H23.0834ZM28.5402 71.1745H33.8529L35.0789 74.1073H27.4585L28.5402 71.1745ZM40.3744 59.8762H44.8217L56.3604 77.5689H51.8651L40.3744 59.8762ZM40.134 77.5689L46.4323 67.6648L48.0669 71.1745L44.4611 77.5689H40.134ZM48.3073 66.3667L51.9613 59.8762H56.1922L50.1103 69.3716L48.3073 66.3667ZM59.2357 59.8762H62.7214V77.5689H59.2357V59.8762ZM67.2879 59.8762H70.7736V77.5689H67.2879V59.8762ZM98.0377 59.8762V77.5689H94.552V70.3812H86.6431V77.5689H83.1575V59.8762H86.6431V67.0158H94.552V59.8762H98.0377ZM101.514 68.7466C101.514 67.5286 101.746 66.3747 102.211 65.285C102.675 64.1952 103.317 63.2336 104.134 62.4003C104.967 61.5509 105.929 60.8858 107.019 60.405C108.108 59.9242 109.278 59.6838 110.528 59.6838C111.762 59.6838 112.924 59.9242 114.014 60.405C115.104 60.8858 116.065 61.5509 116.899 62.4003C117.748 63.2336 118.405 64.1952 118.87 65.285C119.351 66.3747 119.591 67.5286 119.591 68.7466C119.591 69.9966 119.351 71.1665 118.87 72.2563C118.405 73.3461 117.748 74.3076 116.899 75.141C116.065 75.9583 115.104 76.5994 114.014 77.0641C112.924 77.5289 111.762 77.7613 110.528 77.7613C109.278 77.7613 108.108 77.5289 107.019 77.0641C105.929 76.5994 104.967 75.9583 104.134 75.141C103.317 74.3076 102.675 73.3461 102.211 72.2563C101.746 71.1665 101.514 69.9966 101.514 68.7466ZM105.119 68.7466C105.119 69.5319 105.256 70.2691 105.528 70.9582C105.817 71.6313 106.209 72.2323 106.706 72.7611C107.219 73.274 107.804 73.6746 108.461 73.9631C109.134 74.2515 109.863 74.3958 110.648 74.3958C111.402 74.3958 112.099 74.2515 112.74 73.9631C113.397 73.6746 113.966 73.274 114.447 72.7611C114.927 72.2323 115.304 71.6313 115.576 70.9582C115.849 70.2691 115.985 69.5319 115.985 68.7466C115.985 67.9453 115.841 67.2001 115.552 66.5109C115.28 65.8218 114.895 65.2209 114.399 64.708C113.918 64.1792 113.349 63.7705 112.692 63.482C112.035 63.1936 111.322 63.0493 110.552 63.0493C109.783 63.0493 109.07 63.1936 108.413 63.482C107.756 63.7705 107.179 64.1792 106.682 64.708C106.185 65.2209 105.801 65.8218 105.528 66.5109C105.256 67.2001 105.119 67.9453 105.119 68.7466ZM123.066 77.5689V59.155H123.09L132.922 73.0977L131.432 72.7611L141.24 59.155H141.288V77.5689H137.802V67.0158L138.018 68.8187L132.033 77.3285H131.985L125.831 68.8187L126.432 67.16V77.5689H123.066ZM145.861 59.8762H157.929V63.2416H149.347V67.0158H156.943V70.3812H149.347V74.2035H158.265V77.5689H145.861V59.8762Z" fill="#212626"/>
<path d="M44.2706 95.9379C43.6867 95.9379 43.1331 95.8621 42.6099 95.7104C42.0942 95.5512 41.6733 95.3388 41.3472 95.0734C41.1728 94.9445 41.0856 94.7625 41.0856 94.5274C41.0856 94.3682 41.1311 94.2317 41.2221 94.1179C41.3207 93.9966 41.4344 93.9359 41.5634 93.9359C41.6999 93.9359 41.8553 93.989 42.0297 94.0952C42.3558 94.3303 42.6971 94.5009 43.0535 94.607C43.4099 94.7132 43.8042 94.7663 44.2365 94.7663C44.7901 94.7663 45.2147 94.6715 45.5105 94.4819C45.8062 94.2848 45.9541 94.0004 45.9541 93.6288C45.9541 93.3406 45.8138 93.1207 45.5332 92.969C45.2602 92.8098 44.8014 92.6581 44.1569 92.514C43.4895 92.37 42.9473 92.2031 42.5302 92.0135C42.1132 91.824 41.7984 91.5813 41.5861 91.2856C41.3738 90.9898 41.2676 90.6144 41.2676 90.1594C41.2676 89.6893 41.4003 89.2684 41.6657 88.8968C41.9312 88.5252 42.2989 88.2371 42.7691 88.0323C43.2469 87.82 43.7815 87.7138 44.373 87.7138C45.4574 87.7138 46.3409 88.002 47.0234 88.5783C47.1219 88.6617 47.1902 88.7451 47.2281 88.8286C47.2736 88.9044 47.2964 89.003 47.2964 89.1243C47.2964 89.2836 47.2471 89.4238 47.1485 89.5452C47.0575 89.6589 46.9475 89.7158 46.8186 89.7158C46.7428 89.7158 46.6707 89.7044 46.6025 89.6817C46.5418 89.6589 46.4584 89.6172 46.3522 89.5566C46.0413 89.3291 45.738 89.1622 45.4422 89.0561C45.1541 88.9423 44.7976 88.8854 44.373 88.8854C43.8573 88.8854 43.4478 88.9916 43.1445 89.2039C42.8487 89.4087 42.7009 89.6968 42.7009 90.0684C42.7009 90.3793 42.8336 90.6182 43.099 90.7851C43.3644 90.9519 43.8156 91.1073 44.4526 91.2514C45.1275 91.4031 45.6735 91.5737 46.0906 91.7633C46.5153 91.9453 46.8376 92.1804 47.0575 92.4685C47.285 92.7567 47.3987 93.1169 47.3987 93.5492C47.3987 94.0193 47.266 94.4364 47.0006 94.8004C46.7428 95.1568 46.375 95.4374 45.8972 95.6422C45.4271 95.8393 44.8849 95.9379 44.2706 95.9379ZM54.1185 95.1642C54.1534 95.2397 54.1708 95.3153 54.1708 95.3909C54.1708 95.5246 54.1156 95.6379 54.0052 95.7309C53.9006 95.8239 53.7785 95.8704 53.639 95.8704C53.546 95.8704 53.4588 95.8472 53.3774 95.8007C53.296 95.7483 53.2321 95.6699 53.1856 95.5652L52.6624 94.3969H49.5933L49.0702 95.5652C49.0237 95.6699 48.9597 95.7483 48.8784 95.8007C48.797 95.8472 48.7069 95.8704 48.6081 95.8704C48.4744 95.8704 48.3523 95.8239 48.2419 95.7309C48.1314 95.6379 48.0762 95.5246 48.0762 95.3909C48.0762 95.3153 48.0936 95.2397 48.1285 95.1642L50.535 89.9937C50.5873 89.8775 50.6658 89.7903 50.7704 89.7322C50.8808 89.6682 50.9971 89.6363 51.1192 89.6363C51.2412 89.6363 51.3546 89.6682 51.4592 89.7322C51.5697 89.7903 51.651 89.8775 51.7033 89.9937L54.1185 95.1642ZM49.977 93.525H52.2788L51.1279 90.9354L49.977 93.525ZM55.5501 95.8355C55.3815 95.8355 55.2507 95.789 55.1577 95.696C55.0647 95.603 55.0182 95.4752 55.0182 95.3124V90.203C55.0182 90.0344 55.0676 89.9007 55.1665 89.8019C55.2711 89.6973 55.4077 89.645 55.5763 89.645C55.7506 89.645 55.8872 89.6973 55.9861 89.8019C56.0907 89.9007 56.143 90.0344 56.143 90.203V94.9113H58.5931C58.9418 94.9113 59.1162 95.0654 59.1162 95.3734C59.1162 95.6815 58.9418 95.8355 58.5931 95.8355H55.5501ZM62.2603 95.914C61.6616 95.914 61.1414 95.7861 60.6996 95.5304C60.2637 95.2746 59.9265 94.9084 59.6882 94.4318C59.4499 93.9551 59.3307 93.3971 59.3307 92.7577C59.3307 92.1183 59.447 91.5632 59.6795 91.0924C59.9178 90.6157 60.2578 90.2495 60.6996 89.9937C61.1414 89.738 61.6616 89.6101 62.2603 89.6101C62.859 89.6101 63.3764 89.738 63.8123 89.9937C64.2541 90.2495 64.5912 90.6157 64.8237 91.0924C65.0621 91.5632 65.1812 92.1183 65.1812 92.7577C65.1812 93.3971 65.0621 93.9551 64.8237 94.4318C64.5854 94.9084 64.2454 95.2746 63.8036 95.5304C63.3677 95.7861 62.8532 95.914 62.2603 95.914ZM62.2603 95.0159C62.8242 95.0159 63.263 94.8212 63.5769 94.4318C63.8966 94.0423 64.0565 93.4843 64.0565 92.7577C64.0565 92.0311 63.8966 91.476 63.5769 91.0924C63.263 90.7029 62.8242 90.5082 62.2603 90.5082C61.6907 90.5082 61.246 90.7029 60.9263 91.0924C60.6124 91.476 60.4555 92.0311 60.4555 92.7577C60.4555 93.4843 60.6124 94.0423 60.9263 94.4318C61.246 94.8212 61.6907 95.0159 62.2603 95.0159ZM70.9733 89.645C71.136 89.645 71.2639 89.6973 71.3569 89.8019C71.4557 89.9007 71.5052 90.0344 71.5052 90.203V95.3211C71.5052 95.4897 71.4557 95.6263 71.3569 95.7309C71.2581 95.8355 71.1302 95.8879 70.9733 95.8879C70.7873 95.8879 70.6449 95.821 70.5461 95.6873L67.3636 91.5457V95.3211C67.3636 95.4897 67.3171 95.6263 67.2241 95.7309C67.1311 95.8355 67.0032 95.8879 66.8404 95.8879C66.6777 95.8879 66.5498 95.8355 66.4568 95.7309C66.3638 95.6263 66.3173 95.4897 66.3173 95.3211V90.203C66.3173 90.0344 66.3667 89.9007 66.4655 89.8019C66.5643 89.6973 66.6951 89.645 66.8579 89.645C67.0381 89.645 67.1776 89.7118 67.2764 89.8455L70.4501 93.9697V90.203C70.4501 90.0344 70.4966 89.9007 70.5897 89.8019C70.6885 89.6973 70.8163 89.645 70.9733 89.645ZM82.5207 87.7593C82.7331 87.7593 82.9037 87.8276 83.0326 87.9641C83.1615 88.093 83.226 88.2674 83.226 88.4873V95.2213C83.226 95.4336 83.1653 95.6005 83.044 95.7218C82.9227 95.8431 82.7634 95.9038 82.5662 95.9038C82.3691 95.9038 82.2136 95.8431 82.0999 95.7218C81.9861 95.6005 81.9292 95.4336 81.9292 95.2213V90.5348L79.9955 94.1975C79.9045 94.3644 79.8059 94.4895 79.6998 94.5729C79.5936 94.6488 79.4685 94.6867 79.3244 94.6867C79.1803 94.6867 79.0552 94.6488 78.949 94.5729C78.8428 94.4971 78.7443 94.372 78.6533 94.1975L76.7081 90.5917V95.2213C76.7081 95.426 76.6475 95.5929 76.5261 95.7218C76.4124 95.8431 76.2569 95.9038 76.0598 95.9038C75.8626 95.9038 75.7071 95.8431 75.5934 95.7218C75.4796 95.6005 75.4228 95.4336 75.4228 95.2213V88.4873C75.4228 88.2674 75.4834 88.093 75.6048 87.9641C75.7337 87.8276 75.9043 87.7593 76.1166 87.7593C76.4124 87.7593 76.6437 87.9223 76.8105 88.2484L79.3358 93.06L81.8496 88.2484C82.0165 87.9223 82.2402 87.7593 82.5207 87.7593ZM85.3031 95.8355C85.1345 95.8355 85.0008 95.789 84.902 95.696C84.809 95.603 84.7625 95.4722 84.7625 95.3037V90.2204C84.7625 90.0519 84.809 89.9211 84.902 89.8281C85.0008 89.7351 85.1345 89.6886 85.3031 89.6886H88.4507C88.6192 89.6886 88.75 89.7264 88.843 89.8019C88.936 89.8775 88.9825 89.985 88.9825 90.1245C88.9825 90.2699 88.936 90.3832 88.843 90.4646C88.75 90.5401 88.6192 90.5779 88.4507 90.5779H85.8611V92.2694H88.2763C88.4448 92.2694 88.5756 92.3072 88.6686 92.3828C88.7616 92.4583 88.8081 92.5688 88.8081 92.7141C88.8081 92.8536 88.7616 92.9611 88.6686 93.0367C88.5756 93.1123 88.4448 93.1501 88.2763 93.1501H85.8611V94.9462H88.4507C88.6192 94.9462 88.75 94.9869 88.843 95.0683C88.936 95.1438 88.9825 95.2543 88.9825 95.3996C88.9825 95.5391 88.936 95.6466 88.843 95.7222C88.75 95.7978 88.6192 95.8355 88.4507 95.8355H85.3031ZM93.6809 92.6618C94.0355 92.7606 94.3087 92.9408 94.5005 93.2024C94.6982 93.4639 94.797 93.7836 94.797 94.1615C94.797 94.6846 94.6081 95.0944 94.2303 95.3909C93.8582 95.6873 93.3438 95.8355 92.687 95.8355H90.4374C90.2689 95.8355 90.1352 95.789 90.0364 95.696C89.9434 95.603 89.8969 95.4722 89.8969 95.3037V90.2204C89.8969 90.0519 89.9434 89.9211 90.0364 89.8281C90.1352 89.7351 90.2689 89.6886 90.4374 89.6886H92.5998C93.2392 89.6886 93.7391 89.831 94.0995 90.1158C94.4657 90.3948 94.6488 90.7872 94.6488 91.2929C94.6488 91.6184 94.5616 91.9003 94.3872 92.1386C94.2186 92.377 93.9832 92.5513 93.6809 92.6618ZM90.9955 92.2782H92.4167C93.1898 92.2782 93.5763 91.9904 93.5763 91.415C93.5763 91.1243 93.4804 90.9093 93.2886 90.7697C93.0968 90.6302 92.8061 90.5605 92.4167 90.5605H90.9955V92.2782ZM92.5649 94.9636C92.9718 94.9636 93.2682 94.891 93.4543 94.7457C93.6403 94.6003 93.7333 94.3736 93.7333 94.0656C93.7333 93.7575 93.6374 93.5279 93.4455 93.3768C93.2595 93.2256 92.966 93.1501 92.5649 93.1501H90.9955V94.9636H92.5649ZM96.3805 95.8355C96.212 95.8355 96.0812 95.789 95.9882 95.696C95.8952 95.603 95.8487 95.4752 95.8487 95.3124V90.203C95.8487 90.0344 95.8981 89.9007 95.9969 89.8019C96.1015 89.6973 96.2381 89.645 96.4067 89.645C96.5811 89.645 96.7177 89.6973 96.8165 89.8019C96.9211 89.9007 96.9734 90.0344 96.9734 90.203V94.9113H99.4235C99.7723 94.9113 99.9466 95.0654 99.9466 95.3734C99.9466 95.6815 99.7723 95.8355 99.4235 95.8355H96.3805ZM103.091 95.914C102.492 95.914 101.972 95.7861 101.53 95.5304C101.094 95.2746 100.757 94.9084 100.519 94.4318C100.28 93.9551 100.161 93.3971 100.161 92.7577C100.161 92.1183 100.277 91.5632 100.51 91.0924C100.748 90.6157 101.088 90.2495 101.53 89.9937C101.972 89.738 102.492 89.6101 103.091 89.6101C103.689 89.6101 104.207 89.738 104.643 89.9937C105.085 90.2495 105.422 90.6157 105.654 91.0924C105.892 91.5632 106.012 92.1183 106.012 92.7577C106.012 93.3971 105.892 93.9551 105.654 94.4318C105.416 94.9084 105.076 95.2746 104.634 95.5304C104.198 95.7861 103.684 95.914 103.091 95.914ZM103.091 95.0159C103.655 95.0159 104.093 94.8212 104.407 94.4318C104.727 94.0423 104.887 93.4843 104.887 92.7577C104.887 92.0311 104.727 91.476 104.407 91.0924C104.093 90.7029 103.655 90.5082 103.091 90.5082C102.521 90.5082 102.076 90.7029 101.757 91.0924C101.443 91.476 101.286 92.0311 101.286 92.7577C101.286 93.4843 101.443 94.0423 101.757 94.4318C102.076 94.8212 102.521 95.0159 103.091 95.0159ZM114.702 89.985C114.743 89.8688 114.807 89.7816 114.894 89.7235C114.987 89.6653 115.089 89.6363 115.199 89.6363C115.339 89.6363 115.458 89.6799 115.557 89.7671C115.661 89.8542 115.714 89.9705 115.714 90.1158C115.714 90.1681 115.699 90.2437 115.67 90.3425L113.795 95.5304C113.749 95.6466 113.67 95.7367 113.56 95.8007C113.455 95.8646 113.339 95.8966 113.211 95.8966C113.083 95.8966 112.964 95.8646 112.854 95.8007C112.743 95.7367 112.668 95.6466 112.627 95.5304L111.18 91.4237L109.706 95.5304C109.66 95.6466 109.581 95.7367 109.471 95.8007C109.366 95.8646 109.25 95.8966 109.122 95.8966C108.994 95.8966 108.875 95.8646 108.764 95.8007C108.66 95.7367 108.587 95.6466 108.546 95.5304L106.672 90.3425C106.643 90.2553 106.628 90.1798 106.628 90.1158C106.628 89.9705 106.681 89.8542 106.785 89.7671C106.896 89.6799 107.024 89.6363 107.169 89.6363C107.285 89.6363 107.39 89.6653 107.483 89.7235C107.576 89.7816 107.643 89.8688 107.683 89.985L109.166 94.2487L110.691 90.0112C110.732 89.8949 110.799 89.8048 110.892 89.7409C110.985 89.6711 111.087 89.6363 111.197 89.6363C111.308 89.6363 111.409 89.6711 111.502 89.7409C111.601 89.8048 111.671 89.8978 111.711 90.0199L113.194 94.301L114.702 89.985ZM120.657 89.8368C120.761 89.7089 120.886 89.645 121.032 89.645C121.165 89.645 121.285 89.6973 121.389 89.8019C121.494 89.9007 121.546 90.0199 121.546 90.1594C121.546 90.2757 121.503 90.3861 121.415 90.4907L119.436 92.9059V95.3211C119.436 95.5013 119.384 95.6408 119.279 95.7396C119.175 95.8384 119.041 95.8879 118.878 95.8879C118.71 95.8879 118.573 95.8384 118.468 95.7396C118.364 95.6408 118.311 95.5013 118.311 95.3211V92.9059L116.332 90.4907C116.245 90.3861 116.201 90.2757 116.201 90.1594C116.201 90.0199 116.254 89.9007 116.358 89.8019C116.463 89.6973 116.582 89.645 116.716 89.645C116.861 89.645 116.986 89.7089 117.091 89.8368L118.878 92.0515L120.657 89.8368Z" fill="#212626"/>
<line x1="29.9338" y1="92.5145" x2="37.2777" y2="92.5145" stroke="#212626" stroke-width="0.682499"/>
<line x1="129.794" y1="92.5145" x2="137.138" y2="92.5145" stroke="#212626" stroke-width="0.682499"/>
</svg>
