<svg width="94" height="37" viewBox="0 0 94 37" fill="none" xmlns="http://www.w3.org/2000/svg">
<path d="M11.3454 19.1498H0V36H4.08844V23.7201H11.3454V19.1498Z" fill="#BEA078"/>
<path d="M4.05924 16.8573H0V8.75344L4.05924 11.0459V16.8573Z" fill="#BEA078"/>
<path d="M0 1V5.80392L11.3454 12.9295V7.99416L0 1Z" fill="#BEA078"/>
<path d="M11.3308 19.1498H22.6763V36H18.5878V23.7201H11.3308V19.1498Z" fill="#BEA078"/>
<path d="M18.617 16.8573H22.6763V8.75344L18.617 11.0459V16.8573Z" fill="#BEA078"/>
<path d="M22.6763 1V5.80392L11.3308 12.9295V7.99416L22.6763 1Z" fill="#BEA078"/>
<path d="M29.9 16V0.679999H29.92L38.1 12.28L36.86 12L45.02 0.679999H45.06V16H42.16V7.22L42.34 8.72L37.36 15.8H37.32L32.2 8.72L32.7 7.34V16H29.9ZM47.2048 16L53.8448 0.699999H54.0048L60.6448 16H57.2848L53.0448 5.24L55.1448 3.8L50.0648 16H47.2048ZM51.7448 10.68H56.1648L57.1848 13.12H50.8448L51.7448 10.68ZM61.5906 1.28H65.2906L74.8906 16H71.1506L61.5906 1.28ZM61.3906 16L66.6306 7.76L67.9906 10.68L64.9906 16H61.3906ZM68.1906 6.68L71.2306 1.28H74.7506L69.6906 9.18L68.1906 6.68ZM77.2828 1.28H80.1828V16H77.2828V1.28ZM83.982 1.28H86.882V16H83.982V1.28ZM42.28 21.28V36H39.38V30.02H32.8V36H29.9V21.28H32.8V27.22H39.38V21.28H42.28ZM45.1719 28.66C45.1719 27.6467 45.3652 26.6867 45.7519 25.78C46.1385 24.8733 46.6719 24.0733 47.3519 23.38C48.0452 22.6733 48.8452 22.12 49.7519 21.72C50.6585 21.32 51.6319 21.12 52.6719 21.12C53.6985 21.12 54.6652 21.32 55.5719 21.72C56.4785 22.12 57.2785 22.6733 57.9719 23.38C58.6785 24.0733 59.2252 24.8733 59.6119 25.78C60.0119 26.6867 60.2119 27.6467 60.2119 28.66C60.2119 29.7 60.0119 30.6733 59.6119 31.58C59.2252 32.4867 58.6785 33.2867 57.9719 33.98C57.2785 34.66 56.4785 35.1933 55.5719 35.58C54.6652 35.9667 53.6985 36.16 52.6719 36.16C51.6319 36.16 50.6585 35.9667 49.7519 35.58C48.8452 35.1933 48.0452 34.66 47.3519 33.98C46.6719 33.2867 46.1385 32.4867 45.7519 31.58C45.3652 30.6733 45.1719 29.7 45.1719 28.66ZM48.1719 28.66C48.1719 29.3133 48.2852 29.9267 48.5119 30.5C48.7519 31.06 49.0785 31.56 49.4919 32C49.9185 32.4267 50.4052 32.76 50.9519 33C51.5119 33.24 52.1185 33.36 52.7719 33.36C53.3985 33.36 53.9785 33.24 54.5119 33C55.0585 32.76 55.5319 32.4267 55.9319 32C56.3319 31.56 56.6452 31.06 56.8719 30.5C57.0985 29.9267 57.2119 29.3133 57.2119 28.66C57.2119 27.9933 57.0919 27.3733 56.8519 26.8C56.6252 26.2267 56.3052 25.7267 55.8919 25.3C55.4919 24.86 55.0185 24.52 54.4719 24.28C53.9252 24.04 53.3319 23.92 52.6919 23.92C52.0519 23.92 51.4585 24.04 50.9119 24.28C50.3652 24.52 49.8852 24.86 49.4719 25.3C49.0585 25.7267 48.7385 26.2267 48.5119 26.8C48.2852 27.3733 48.1719 27.9933 48.1719 28.66ZM63.1031 36V20.68H63.1231L71.3031 32.28L70.0631 32L78.2231 20.68H78.2631V36H75.3631V27.22L75.5431 28.72L70.5631 35.8H70.5231L65.4031 28.72L65.9031 27.34V36H63.1031ZM82.068 21.28H92.108V24.08H84.968V27.22H91.288V30.02H84.968V33.2H92.388V36H82.068V21.28Z" fill="#212626"/>
</svg>
