<svg width="85" height="85" viewBox="0 0 85 85" fill="none" xmlns="http://www.w3.org/2000/svg">
<path d="M42.4646 7.08331C22.9146 7.08331 7.08334 22.9146 7.08334 42.5C7.08334 62.0854 22.9146 77.9166 42.4646 77.9166C62.0146 77.9166 77.9167 62.0854 77.9167 42.5C77.9167 22.9146 62.05 7.08331 42.4646 7.08331ZM42.5 70.8333C26.8458 70.8333 14.1667 58.1541 14.1667 42.5C14.1667 26.8458 26.8458 14.1666 42.5 14.1666C58.1542 14.1666 70.8333 26.8458 70.8333 42.5C70.8333 58.1541 58.1542 70.8333 42.5 70.8333ZM46.0417 35.2041L49.7958 38.9583L53.55 35.2041L57.3042 38.9583L61.0583 35.2041L53.55 27.6958L46.0417 35.2041ZM31.45 35.2041L35.2042 38.9583L38.9583 35.2041L31.45 27.6958L23.9417 35.2041L27.6958 38.9583L31.45 35.2041ZM42.5 61.9791C50.7521 61.9791 57.7646 56.8083 60.5979 49.5833H24.4021C27.2354 56.8083 34.2479 61.9791 42.5 61.9791Z" fill="#212626"/>
</svg>
