<svg width="85" height="85" viewBox="0 0 85 85" fill="none" xmlns="http://www.w3.org/2000/svg">
<path d="M70.8333 28.3334H60.2083V14.1667H10.625C6.72916 14.1667 3.54166 17.3542 3.54166 21.25V60.2083H10.625C10.625 66.0875 15.3708 70.8333 21.25 70.8333C27.1292 70.8333 31.875 66.0875 31.875 60.2083H53.125C53.125 66.0875 57.8708 70.8333 63.75 70.8333C69.6292 70.8333 74.375 66.0875 74.375 60.2083H81.4583V42.5L70.8333 28.3334ZM69.0625 33.6459L76.0042 42.5H60.2083V33.6459H69.0625ZM21.25 63.75C19.3021 63.75 17.7083 62.1563 17.7083 60.2083C17.7083 58.2604 19.3021 56.6667 21.25 56.6667C23.1979 56.6667 24.7917 58.2604 24.7917 60.2083C24.7917 62.1563 23.1979 63.75 21.25 63.75ZM29.1125 53.125C27.1646 50.9646 24.4021 49.5834 21.25 49.5834C18.0979 49.5834 15.3354 50.9646 13.3875 53.125H10.625V21.25H53.125V53.125H29.1125ZM63.75 63.75C61.8021 63.75 60.2083 62.1563 60.2083 60.2083C60.2083 58.2604 61.8021 56.6667 63.75 56.6667C65.6979 56.6667 67.2917 58.2604 67.2917 60.2083C67.2917 62.1563 65.6979 63.75 63.75 63.75Z" fill="#212626"/>
</svg>
